<svg xmlns="http://www.w3.org/2000/svg" height="800" width="1200" viewBox="-52.6347 -38.578 456.1674 231.468"><path d="M345.966 131.366a4.939 4.939 0 014.932 4.932c0 2.712-2.214 4.925-4.932 4.925a4.936 4.936 0 01-4.926-4.925 4.938 4.938 0 014.926-4.932m0 8.745c2.059 0 3.659-1.686 3.659-3.813 0-2.139-1.601-3.825-3.659-3.825s-3.658 1.686-3.658 3.825c0 2.127 1.599 3.813 3.658 3.813m-1.887-6.457h1.651c1.193 0 2.328.281 2.328 1.525 0 .93-.607 1.508-1.164 1.594l1.325 2.053h-1.388l-1.182-1.99h-.31v1.99h-1.262v-5.172zm1.251 2.151h.625c.314 0 .831-.012.831-.562 0-.528-.517-.556-.831-.556h-.625z" fill="#221F72"/><path d="M338.173 18.356c0-.224-.022-.453-.068-.683-.597-3.32-5.729-7.059-9.198-8.6 0 0-22.369-12.553-86.426-8.104-36.567 2.552-82.476 10.717-82.476 10.717l-.198.034C15.929-12.82.063 8.54.005 11.9v-.006.023l.018.607v123.441c0 .224.04.458.086.688.594 3.303 5.769 7.076 9.198 8.601 0 0 22.377 12.553 86.438 8.097 36.564-2.54 82.47-10.71 82.47-10.71l.194-.036c143.881 24.543 159.754 3.183 159.811-.177v.005-.022l-.012-.603z" fill="#FFF"/><path d="M176.084 110.144c-1.233.034-2.689-.67-3.854-2.334-1.027-1.462-.657-4.123-.634-7.667.028-3.446.757-60.507.745-61.425-.012-.918.212-3.607-2.125-3.229-2.336.378-17.598 3.475-20.382 3.894-2.377.35-2.136.648-1.979 2.276.046.482.152.986.565 1.273.567.401 1.318.54 1.924.871 2.531 1.365 4.017 4.17 4.688 6.881.221.912.321 1.846.321 2.787 0 1.25-.522 41.556-.809 50.003-.206 6.141.763 10.264 2.959 12.604 1.597 1.71 3.968 2.575 7.245 2.655.493.011 1.021.011 1.557-.018 5.731-.235 9.283-2.494 11.308-4.765 1.845-2.057.36-3.858-1.529-3.806m105.223-87.023c-.229 0-.459.011-.693.034-3.178.298-5.528 2.89-5.597 6.165-.034 2.374 1.032 4.071 2.896 6.2 1.577 1.793 1.204 3.824 1.084 4.483-.281 1.611-.838 2.885-1.377 4.123l-.08.184c-.218.5-.47 1.394.299 1.75.137.068.298.097.481.097.567 0 1.33-.35 2.035-.94 2.288-1.927 7.014-8.166 7.014-15.087-.001-5.168-3.133-7.009-6.062-7.009m-4.174 72.809c-4.123-.752-4.674-4.92-4.691-8.476-.028-4.278.734-16.372 1.061-27.484.201-6.818-1.101-12.07-3.854-14.943-2.121-2.196-5.103-3.286-9.111-3.326h-.143c-6.113 0-10.62 3.934-12.547 5.471-.149.115-.287.23-.401.315-.528.39-1.021.573-1.479.573-.379 0-1.635-.166-1.646-2.333l.081-19.032c-.006-2.368-.659-2.47-2.759-2.35-3.928.234-17.18 1.748-19.267 2.081-1.628.252-1.583.85-1.508 2.15.046 1.003-.144 1.537 1.852 2.213 1.812.614 4.812 2.88 4.812 9.674 0 7.57-.092 58.73-.092 64.717 0 2.73 2.225 2.288 3.538 2.093 4.645-.7 5.895-.895 9.817-1.428 2.729-.367 3.67 0 3.646-3.372-.012-2.718-.184-36.877-.195-37.146.058-6.916 3.045-13.017 7.271-13.017.08 0 .166 0 .252.006 4.277.195 4.69 6.302 4.628 9.91-.098 6.066-.826 21.067-.637 29.404.172 7.833 3.372 11.256 10.688 11.446.264.005.516.011.769.011 4.255 0 7.701-.952 10.265-2.833 1.101-.82 1.57-1.56 1.554-2.495-.001-.637-.202-1.52-1.904-1.83m-57.463-2.013c-.614-.057-1.434.378-2.42 1.285-2.489 2.293-5.247 3.526-8.2 3.664a11.74 11.74 0 01-1.423-.029c-7.477-.642-11.146-8.928-10.062-22.736 1.015-11.979 4.392-19.68 9.519-20.19 1.428-.138 2.649.373 3.48 1.451 1.176 1.52 1.594 4.117 1.21 7.518-.338 3.04.138 3.888 1.072 4.324.769.361 1.807.143 2.913-.568 3.343-2.167 6.514-10.454 3.876-15.133-1.582-2.78-4.782-4.513-9.002-4.88-2.082-.178-4.324-.023-6.676.47-11.6 2.42-23.258 14.777-24.514 35.002-1.009 16.383 5.838 26.802 18.333 27.874.98.092 1.995.11 3.016.07 11.922-.47 17.123-8.608 18.797-12.077 1.021-2.099 1.617-4.857.9-5.62-.252-.264-.521-.402-.819-.425m-79.775-32.008a20.485 20.485 0 00-4.32-.132c-14.611.992-27.886 17.29-30.226 37.106-1.771 14.972 4.089 25.276 15.305 26.882 1.362.2 2.808.27 4.292.212 11.343-.44 18.826-8.406 21.455-13.344 1.637-3.079 1.754-5.338 1.035-5.986-.219-.184-.425-.292-.619-.32-.545-.075-1.303.418-2.529 1.65-.095.098-.212.23-.353.373-1.445 1.548-4.347 3.664-9.178 4.071-1.009.08-1.989.057-2.931-.075-4.32-.625-7.368-3.48-8.59-8.04a2.294 2.294 0 01.052-1.646c.152-.35.477-.814 1.139-1.06 1.45-.535 3.636-1.555 6.302-2.926 5.949-3.033 16.311-9.748 18.955-20.74.926-3.843.433-7.874-1.316-10.793-1.733-2.876-4.663-4.682-8.473-5.232m-5.743 26.021c-2.461 2.92-5.451 5.264-9.149 7.168l-.034.017c-.425.19-.823.258-1.182.212-.874-.126-1.408-.923-1.434-2.127-.074-3.836 1.142-8.888 2.38-12.185 2.824-7.478 7.104-11.95 10.915-11.406.166.03.336.058.499.103 1.657.447 2.772 1.635 3.231 3.418.97 3.825-1.226 10.047-5.226 14.8M116.915 49.5c.117-1.022-.175-1.962-.857-2.725-.903-1.009-2.383-1.594-4.062-1.594-.886 0-1.795.155-2.713.464-7.475 2.541-10.729 12.822-13.435 24.136-1.913 7.96-3.805 17.816-4.468 21.32l-.246 1.296c-.284 1.422-.554 2.77-1.792 2.804h-.029c-1.293 0-1.703-1.68-1.897-2.489-1.648-6.359-8.765-38.517-9.049-39.618-.745-2.947-1.313-2.896-4.003-2.597-1.967.218-3.208.378-4.939.544-2.689.252-3.475-.097-4.011 2.196-.522 2.253-9.055 43.064-9.072 43.14-.187.831-.538 2.384-1.749 2.424h-.04c-1.187 0-1.511-1.25-1.726-2.076l-.015-.069c-.157-.619-9.387-30.667-9.387-30.667-.906-3.286.187-7.024 2.853-8.229 2.079-.946 1.979-1.53 1.927-3.223-.054-2.042-1.444-1.623-2.56-1.623-.33 0-7.458 0-14.629-.247-7.139-.247-15.149-2.082-15.149-2.082s-1.726-.384-1.872 1.302c-.164 1.846-.465 2.512 2.643 4.244 1.93 1.072 5.688 3.32 8.002 9.914 1.192 3.39 16.787 58.397 17.34 60.152.952 2.982 1.268 4.21 3.616 4.444 1.763.172 4.306.252 6.101.298 3.642.098 3.799-.075 4.699-3.842.943-3.957 8.624-36.969 8.661-37.112.17-.745.522-2.31 1.727-2.339h.034l.04.006c1.17.091 1.479 1.238 1.687 1.99l.011.046c.207.734 7.997 32.926 8.803 35.73 1.221 4.278 1.603 5.356 4.274 5.041 0 0 4.685-.264 5.854-.407 2.494-.292 2.26-.08 3.647-4.949.65-2.305 1.531-6.153 2.517-10.224a1310.064 1310.064 0 014.398-17.805c7.054-27.674 12.209-38.213 16.953-43.672 1.222-1.409 1.755-2.498 1.913-3.903M311.94 65.073l-.058-.046c-6.784-5.212-9.771-8.303-9.548-12.833.149-2.948 2.408-5.207 5.264-5.247a6.214 6.214 0 011.755.235c2.913.814 5.265 3.458 7.403 8.343 1.927 4.421 2.815 5.035 4.031 4.937.459-.034 1.514-.115 1.479-2.919-.023-1.8-.052-2.339-.167-4.146l-.017-.264c-.195-3.297-.7-5.184-3.188-7.638-2.432-2.409-6.99-4.667-11.342-5.625-1.709-.373-3.406-.556-5.023-.533-4.771.063-8.991 1.91-11.887 5.178-2.771 3.136-4.181 7.305-4.066 12.053.229 9.427 7.397 15.316 13.154 20.053l.527.43c7.473 6.136 9.445 9.187 8.797 13.585-.459 3.044-2.781 5.12-5.769 5.161a7.24 7.24 0 01-2.306-.355c-4.518-1.439-6.835-6.165-8.36-9.29-.27-.533-.516-1.032-.745-1.457-.843-1.588-1.938-2.414-3.154-2.397-.613.006-1.256.224-1.869.62-1.032.687-2.609 3.107-1.129 7.362 2.333 6.686 8.916 11.28 18.062 12.621a24.01 24.01 0 003.824.258c9.897-.144 16.894-6.497 17.811-16.182 1.011-10.75-7.028-16.932-13.479-21.904m26.279 77.36c0-1.863-3.234-4.926-7.305-6.45-2.971 1.771-34.762 20.464-143.85 5.125l-8.664 1.496c143.901 24.556 159.762 3.184 159.819-.17zM0 11.894c0 1.864 3.088 4.925 7.162 6.451 2.959-1.77 34.756-20.465 143.844-5.126l8.739-1.508C15.895-12.832.051 8.533 0 11.894z" fill="#221F72"/><path d="M330.908 135.977c4.076 1.531 7.305 4.593 7.305 6.457v-12.971s.023-.235-.051-.637c-.127-.808-.66-2.39-2.661-4.077-3.337-2.816-10.471-5.55-21.997-7.024-20.305-2.604-53.018.763-109.386 9.937-2.099.34-4.169.688-6.228 1.044-1.364.235-2.729.47-4.082.717a410.21 410.21 0 00-4.049.723c-38.225 6.956-71.153 15.385-114.636 16.721-36.224 1.124-53.756-2.368-65.053-6.84-5.058-1.997-8.962-5.133-10.049-9.554l-.006 5.5c0 .223.043.452.089.682.594 3.31 5.766 7.076 9.201 8.601 0 0 22.372 12.558 86.435 8.097 36.564-2.54 82.47-10.705 82.47-10.705l8.854-1.543c14.301-2.39 43.546-6.95 69.918-8.859 54.882-3.974 73.06 3.395 73.06 3.395s.339.118.866.336M7.176 18.333C3.099 16.808 0 13.74 0 11.883v.016l.011.603.006 12.346s-.023.241.055.636c.135.814.51 2.391 2.512 4.083 3.343 2.815 10.471 5.551 21.996 7.024 20.306 2.598 53.017-.763 109.387-9.943 2.09-.333 4.169-.682 6.224-1.038a717.188 717.188 0 008.135-1.44c38.225-6.956 71.15-15.385 114.639-16.72 36.218-1.125 53.759 2.362 65.049 6.84 5.081 2.007 9.084 5.126 10.167 9.553v-5.499a3.822 3.822 0 00-.052-.682c-.602-3.309-5.849-7.122-9.277-8.647 0 0-22.444-12.512-86.507-8.056-36.562 2.546-82.47 10.717-82.47 10.717l-8.854 1.531c-14.299 2.403-43.546 6.956-69.912 8.86-54.891 3.978-73.068-3.39-73.068-3.39s-.338-.12-.865-.344" fill="#221F72"/></svg>